<svg xmlns="http://www.w3.org/2000/svg" width="53.1" height="50.82" viewBox="0 0 53.1 50.82">
  <g id="Group_32" data-name="Group 32" transform="translate(-2.522 -4.332)">
    <g id="Component_2_2" data-name="Component 2 – 2" transform="translate(4.022 5.832)">
      <g id="Icon_feather-shopping-cart" data-name="Icon feather-shopping-cart">
        <path id="Path_2" data-name="Path 2" d="M16.148,32.074A2.074,2.074,0,1,1,14.074,30,2.074,2.074,0,0,1,16.148,32.074Z" transform="translate(4.083 13.672)" fill="none" stroke="#fff" stroke-linecap="round" stroke-linejoin="round" stroke-width="3"/>
        <path id="Path_3" data-name="Path 3" d="M32.648,32.074A2.074,2.074,0,1,1,30.574,30,2.074,2.074,0,0,1,32.648,32.074Z" transform="translate(13.304 13.672)" fill="none" stroke="#fff" stroke-linecap="round" stroke-linejoin="round" stroke-width="3"/>
        <path id="Path_4" data-name="Path 4" d="M1.5,1.5h9.109l6.1,31.579a4.594,4.594,0,0,0,4.555,3.8H43.4a4.594,4.594,0,0,0,4.555-3.8L51.6,13.292H12.886" transform="translate(-1.5 -1.5)" fill="none" stroke="#fff" stroke-linecap="round" stroke-linejoin="round" stroke-width="3"/>
      </g>
      <path id="Icon_awesome-check" data-name="Icon awesome-check" d="M6.836,19.29.295,12.75a1.006,1.006,0,0,1,0-1.423L1.718,9.9a1.006,1.006,0,0,1,1.423,0L7.547,14.31l9.438-9.438a1.006,1.006,0,0,1,1.423,0L19.831,6.3a1.006,1.006,0,0,1,0,1.423L8.259,19.291A1.006,1.006,0,0,1,6.836,19.29Z" transform="translate(21.883 11.059)" fill="#fff"/>
    </g>
  </g>
</svg>
