<svg xmlns="http://www.w3.org/2000/svg" width="53.1" height="50.823" viewBox="0 0 53.1 50.823">
  <g id="Group_33" data-name="Group 33" transform="translate(-1.7 -4.3)">
    <g id="Icon_feather-shopping-cart" data-name="Icon feather-shopping-cart" transform="translate(3.2 5.8)">
      <path id="Path_2" data-name="Path 2" d="M16.555,32.277A2.277,2.277,0,1,1,14.277,30,2.277,2.277,0,0,1,16.555,32.277Z" transform="translate(3.941 13.268)" fill="none" stroke="#000" stroke-linecap="round" stroke-linejoin="round" stroke-width="3"/>
      <path id="Path_3" data-name="Path 3" d="M33.055,32.277A2.277,2.277,0,1,1,30.777,30,2.277,2.277,0,0,1,33.055,32.277Z" transform="translate(12.491 13.268)" fill="none" stroke="#000" stroke-linecap="round" stroke-linejoin="round" stroke-width="3"/>
      <path id="Path_4" data-name="Path 4" d="M1.5,1.5h9.109l6.1,30.493a4.555,4.555,0,0,0,4.555,3.666H43.4a4.555,4.555,0,0,0,4.555-3.666L51.6,12.886H12.886" transform="translate(-1.5 -1.5)" fill="none" stroke="#000" stroke-linecap="round" stroke-linejoin="round" stroke-width="3"/>
    </g>
    <path id="Icon_awesome-plus-circle" data-name="Icon awesome-plus-circle" d="M7.763.562a7.2,7.2,0,1,0,7.2,7.2A7.2,7.2,0,0,0,7.763.562Zm4.181,8.014a.349.349,0,0,1-.348.348H8.925V11.6a.349.349,0,0,1-.348.348H6.95A.349.349,0,0,1,6.6,11.6V8.925H3.931a.349.349,0,0,1-.348-.348V6.95A.349.349,0,0,1,3.931,6.6H6.6V3.931a.349.349,0,0,1,.348-.348H8.576a.349.349,0,0,1,.348.348V6.6H11.6a.349.349,0,0,1,.348.348Z" transform="translate(26.928 20.82)"/>
  </g>
</svg>
