<svg xmlns="http://www.w3.org/2000/svg" width="100" height="69.612" viewBox="0 0 100 69.612">
  <g id="Group_9" data-name="Group 9" transform="translate(-1317.496 -514.68)">
    <g id="Group_1" data-name="Group 1" transform="translate(1317.496 514.68)">
      <path id="Path_1" data-name="Path 1" d="M10.7-6.074V3.415a7.4,7.4,0,0,0,.415,2.9,2.224,2.224,0,0,0,1.452,1.212,15.1,15.1,0,0,0,3.371.422V9q-2.7-.158-7.624-.158Q3.858,8.845,1.68,9V7.949A10.179,10.179,0,0,0,4.4,7.527,1.881,1.881,0,0,0,5.57,6.315a9.668,9.668,0,0,0,.311-2.9V-22.732a9.668,9.668,0,0,0-.311-2.9A1.881,1.881,0,0,0,4.4-26.844a10.179,10.179,0,0,0-2.723-.422V-28.32q2.178.158,6.328.158l5.6-.053q.985-.053,2.23-.053,6.068,0,9.284,2.82a9.557,9.557,0,0,1,3.216,7.565,12.76,12.76,0,0,1-1.271,5.562,10.458,10.458,0,0,1-4.3,4.455A15.774,15.774,0,0,1,14.7-6.074Zm3.838-21.192a6.043,6.043,0,0,0-2.412.369,2.077,2.077,0,0,0-1.115,1.318,9.744,9.744,0,0,0-.311,2.847v15.6H14.18q5.083,0,7.028-2.768A12.649,12.649,0,0,0,23.153-17.3q0-5.114-2-7.538T14.543-27.266Zm50.051,0a7.14,7.14,0,0,0-2.7.554A2.328,2.328,0,0,0,60.7-25.236a11.131,11.131,0,0,0-.311,3.031V9.267H59.2L37.416-24.946V2.888a10.274,10.274,0,0,0,.337,3.058A2.366,2.366,0,0,0,39.076,7.4a8.935,8.935,0,0,0,3.06.554V9q-1.867-.158-5.29-.158-3.112,0-4.824.158V7.949a7.14,7.14,0,0,0,2.7-.554,2.328,2.328,0,0,0,1.193-1.476,11.131,11.131,0,0,0,.311-3.031v-25.62a9.668,9.668,0,0,0-.311-2.9,1.881,1.881,0,0,0-1.167-1.212,10.179,10.179,0,0,0-2.723-.422V-28.32q1.712.158,4.824.158,2.334,0,4.046-.158L59.2.358V-22.2a10.274,10.274,0,0,0-.337-3.058,2.366,2.366,0,0,0-1.323-1.45,8.935,8.935,0,0,0-3.06-.554V-28.32q1.867.158,5.29.158,3.112,0,4.824-.158ZM85.859-10.713Q91.564-9.922,94-7.365A8.584,8.584,0,0,1,96.44-1.224a9.568,9.568,0,0,1-1.5,5.324,9.934,9.934,0,0,1-4.3,3.611A15.736,15.736,0,0,1,83.992,9q-1.4,0-2.386-.053-3.319-.105-6.535-.105-4.253,0-6.431.158V7.949a10.179,10.179,0,0,0,2.723-.422A1.881,1.881,0,0,0,72.53,6.315a9.668,9.668,0,0,0,.311-2.9V-22.732a9.668,9.668,0,0,0-.311-2.9,1.881,1.881,0,0,0-1.167-1.212,10.179,10.179,0,0,0-2.723-.422V-28.32q2.178.158,6.328.158l5.6-.053q.985-.053,2.23-.053,5.29,0,8.117,2.267a7.319,7.319,0,0,1,2.827,6.01,8.677,8.677,0,0,1-1.893,5.483,11.726,11.726,0,0,1-5.991,3.69ZM81.5-27.266a6.043,6.043,0,0,0-2.412.369,2.077,2.077,0,0,0-1.115,1.318,9.744,9.744,0,0,0-.311,2.847v11.914h3.475q4.253,0,5.939-2.346a10.487,10.487,0,0,0,1.686-6.247q0-3.954-1.712-5.9T81.5-27.266Zm.052,35.057q9.7,0,9.7-9.225,0-4.165-2.2-6.326T82.021-9.922H77.664V3.415a9.186,9.186,0,0,0,.311,2.794,1.977,1.977,0,0,0,1.115,1.239A6.65,6.65,0,0,0,81.554,7.791Z" transform="translate(-0.12 28.32)" fill="#55917f"/>
      <path id="Path_2" data-name="Path 2" d="M2.5-21.586V7.935H7.4V-21.586ZM5.4-17.2h5.855a6.423,6.423,0,0,1,4.07,1.2,4.248,4.248,0,0,1,1.537,3.564A4.308,4.308,0,0,1,15.328-8.85a6.345,6.345,0,0,1-4.07,1.223H5.4v4.386h5.855a12.638,12.638,0,0,0,5.523-1.118,8.6,8.6,0,0,0,3.634-3.184,8.953,8.953,0,0,0,1.308-4.892,8.847,8.847,0,0,0-1.308-4.871,8.652,8.652,0,0,0-3.634-3.163,12.638,12.638,0,0,0-5.523-1.118H5.4Zm25.249-7.76H26.126v32.9h4.527ZM38.418-3.873V7.935h4.527V-4.506A10.153,10.153,0,0,0,42.2-8.66,5.323,5.323,0,0,0,40-11.169a7.1,7.1,0,0,0-3.613-.843,6.187,6.187,0,0,0-3.675,1.075,6.892,6.892,0,0,0-2.326,2.91,10.187,10.187,0,0,0-.81,4.154h1.08a4.758,4.758,0,0,1,.519-2.277,3.767,3.767,0,0,1,1.474-1.518,4.427,4.427,0,0,1,2.243-.548,3.179,3.179,0,0,1,2.679,1.1A5.232,5.232,0,0,1,38.418-3.873Zm8.8,2.109a10.174,10.174,0,0,0,1.35,5.251,9.509,9.509,0,0,0,3.7,3.585,10.746,10.746,0,0,0,5.253,1.286,10.713,10.713,0,0,0,5.274-1.286A9.549,9.549,0,0,0,66.47,3.486a10.174,10.174,0,0,0,1.35-5.251,10.144,10.144,0,0,0-1.35-5.272A9.6,9.6,0,0,0,62.795-10.6a10.713,10.713,0,0,0-5.274-1.286A10.746,10.746,0,0,0,52.268-10.6a9.555,9.555,0,0,0-3.7,3.564A10.143,10.143,0,0,0,47.222-1.765Zm4.61,0a6.669,6.669,0,0,1,.748-3.205,5.4,5.4,0,0,1,2.035-2.151,5.615,5.615,0,0,1,2.907-.759,5.615,5.615,0,0,1,2.907.759A5.4,5.4,0,0,1,62.463-4.97a6.669,6.669,0,0,1,.748,3.205,6.546,6.546,0,0,1-.748,3.184A5.593,5.593,0,0,1,60.428,3.57a5.5,5.5,0,0,1-2.907.78,5.5,5.5,0,0,1-2.907-.78,5.593,5.593,0,0,1-2.035-2.151A6.546,6.546,0,0,1,51.832-1.765Zm17.608-9.7v4.006H80.278v-4.006Zm3.239-6.748V7.935h4.4V-18.212ZM81.9-1.765a10.174,10.174,0,0,0,1.35,5.251,9.509,9.509,0,0,0,3.7,3.585A10.746,10.746,0,0,0,92.2,8.357a10.713,10.713,0,0,0,5.274-1.286,9.549,9.549,0,0,0,3.675-3.585,10.174,10.174,0,0,0,1.35-5.251,10.143,10.143,0,0,0-1.35-5.272A9.6,9.6,0,0,0,97.471-10.6,10.713,10.713,0,0,0,92.2-11.886,10.746,10.746,0,0,0,86.944-10.6a9.555,9.555,0,0,0-3.7,3.564A10.143,10.143,0,0,0,81.9-1.765Zm4.61,0a6.669,6.669,0,0,1,.748-3.205A5.4,5.4,0,0,1,89.29-7.121,5.614,5.614,0,0,1,92.2-7.88a5.615,5.615,0,0,1,2.907.759A5.4,5.4,0,0,1,97.139-4.97a6.669,6.669,0,0,1,.748,3.205,6.546,6.546,0,0,1-.748,3.184A5.593,5.593,0,0,1,95.1,3.57a5.5,5.5,0,0,1-2.907.78,5.5,5.5,0,0,1-2.907-.78,5.593,5.593,0,0,1-2.035-2.151A6.546,6.546,0,0,1,86.508-1.765Z" transform="translate(-2.496 61.255)" fill="#031927"/>
    </g>
  </g>
</svg>
