<svg xmlns="http://www.w3.org/2000/svg" width="53.1" height="50.82" viewBox="0 0 53.1 50.82">
  <g id="Group_34" data-name="Group 34" transform="translate(-1473.5 -219.75)">
    <g id="Icon_feather-shopping-cart" data-name="Icon feather-shopping-cart" transform="translate(1475 221.25)">
      <path id="Path_2" data-name="Path 2" d="M15.886,31.943A1.943,1.943,0,1,1,13.943,30,1.943,1.943,0,0,1,15.886,31.943Z" transform="translate(4.175 13.934)" fill="none" stroke="#fff" stroke-linecap="round" stroke-linejoin="round" stroke-width="3"/>
      <path id="Path_3" data-name="Path 3" d="M32.386,31.943A1.943,1.943,0,1,1,30.443,30,1.943,1.943,0,0,1,32.386,31.943Z" transform="translate(13.828 13.934)" fill="none" stroke="#fff" stroke-linecap="round" stroke-linejoin="round" stroke-width="3"/>
      <path id="Path_4" data-name="Path 4" d="M1.5,1.5h9.109l6.1,32.281a4.622,4.622,0,0,0,4.555,3.881H43.4a4.622,4.622,0,0,0,4.555-3.881L51.6,13.554H12.886" transform="translate(-1.5 -1.5)" fill="none" stroke="#fff" stroke-linecap="round" stroke-linejoin="round" stroke-width="3"/>
    </g>
    <path id="Icon_awesome-minus-circle" data-name="Icon awesome-minus-circle" d="M6.709.563a6.146,6.146,0,1,0,6.146,6.146A6.145,6.145,0,0,0,6.709.563ZM3.437,7.7a.3.3,0,0,1-.3-.3V6.015a.3.3,0,0,1,.3-.3H9.98a.3.3,0,0,1,.3.3V7.4a.3.3,0,0,1-.3.3Z" transform="translate(1499.464 238.04)" fill="#fff"/>
  </g>
</svg>
